<?xml version="1.0" encoding="utf-8"?>
<svg id="master-artboard" viewBox="0 0 432.36029052734375 433.4252624511719" version="1.1" xmlns="http://www.w3.org/2000/svg" x="0px" y="0px" style="enable-background:new 0 0 1400 980;" width="432.36029052734375px" height="433.4252624511719px" xmlns:xlink="http://www.w3.org/1999/xlink"><rect id="ee-background" x="0" y="0" width="432.36029052734375" height="433.4252624511719" style="fill: white; fill-opacity: 0; pointer-events: none;"/><defs><style id="ee-google-fonts">@import url(https://fonts.googleapis.com/css?family=Rubik:300,300italic,400,400italic,500,500italic,700,700italic,900,900italic);</style><clipPath id="d">
   <path d="M 125.5 0 A 125.5 125.5 0 0 1 0 125.5 A 125.5 125.5 0 0 1 -125.5 0 A 125.5 125.5 0 0 1 0 -125.5 A 125.5 125.5 0 0 1 125.5 0 Z"/>
  </clipPath><clipPath id="e">
   <path transform="rotate(-45,15,-69)" d="m-128-212h143v143h-143z"/>
  </clipPath><clipPath id="path-1">
   <path d="M 125.5 0 A 125.5 125.5 0 0 1 0 125.5 A 125.5 125.5 0 0 1 -125.5 0 A 125.5 125.5 0 0 1 0 -125.5 A 125.5 125.5 0 0 1 125.5 0 Z"/>
  </clipPath><clipPath id="path-2">
   <path transform="rotate(-45,15,-69)" d="m-128-212h143v143h-143z"/>
  </clipPath></defs>








































<g transform="matrix(2.341137170791626, 0, 0, 2.341137170791626, -461.5520019531251, 36.7618408203125)"><g transform="matrix(0.5849999785423279, 0, 0, 0.5849999785423279, 287.9836305379562, 77.72937402080294)">
  <g transform="rotate(-11.25)" clip-path="url(#d)">
   <g id="c">
    <path id="a" d="m-128-212h143v143h-143z" clip-path="url(#e)" style="fill: rgb(23, 192, 233);"/>
    <use transform="scale(-1)" style="fill: rgb(23, 192, 233);" xlink:href="#a"/>
   </g>
   <use transform="rotate(45)" style="fill: rgb(23, 192, 233);" xlink:href="#c"/>
   <use transform="rotate(-45)" style="fill: rgb(23, 192, 233);" xlink:href="#a"/>
   <use transform="rotate(90)" style="fill: rgb(23, 192, 233);" xlink:href="#c"/>
    </g>
 </g></g></svg>